<?xml version="1.0" encoding="utf-8"?>
<!-- Generator: Adobe Illustrator 13.0.0, SVG Export Plug-In . SVG Version: 6.00 Build 14948)  -->
<!DOCTYPE svg PUBLIC "-//W3C//DTD SVG 1.0//EN" "http://www.w3.org/TR/2001/REC-SVG-20010904/DTD/svg10.dtd">
<svg version="1.0" id="Layer_1" xmlns="http://www.w3.org/2000/svg" xmlns:xlink="http://www.w3.org/1999/xlink" x="0px" y="0px"
	 width="200px" height="100px" viewBox="0 0 200 100" enable-background="new 0 0 200 100" xml:space="preserve">
<path fill="#0C2FA7" d="M187.561,32.782c-4.813-5.21-11.672-9.881-20.414-13.892c-17.925-8.231-41.742-12.76-67.081-12.76
	c-25.332,0-49.156,4.528-67.082,12.76c-8.733,4.011-15.601,8.681-20.398,13.892c-5,5.42-7.542,11.193-7.542,17.153
	c0,5.959,2.541,11.733,7.542,17.161c4.798,5.202,11.665,9.888,20.398,13.892c17.925,8.223,41.75,12.759,67.082,12.759
	c25.339,0,49.156-4.536,67.081-12.759c8.742-4.004,15.601-8.689,20.414-13.892c4.985-5.428,7.52-11.201,7.52-17.161
	C195.08,43.975,192.546,38.202,187.561,32.782 M100.065,6.851c2.991,0,5.944,0.067,8.868,0.195l2.22,2.376
	c-2.707-0.128-5.436-0.195-8.187-0.195c-21.816,0-42.327,4.146-57.755,11.673c-7.317,3.561-13.089,7.691-17.213,12.287l-6.544-7.017
	C38.352,14.535,67.282,6.851,100.065,6.851 M83.498,92.719L83.498,92.719h0.045H83.498z M100.065,93.019
	c-5.78,0-11.44-0.239-16.935-0.697l-4.401-4.715c7.759,1.169,15.893,1.776,24.237,1.776c21.815,0,42.326-4.146,57.763-11.673
	c3.381-1.649,6.432-3.426,9.146-5.3l4.011,4.304C156.599,86.646,129.933,93.019,100.065,93.019 M102.967,88.655
	c-44.726,0-81.101-17.646-81.101-39.351c0-21.703,36.375-39.358,81.101-39.358c44.718,0,81.107,17.655,81.107,39.358
	C184.074,71.009,147.685,88.655,102.967,88.655"/>
<path fill="#0C2FA7" d="M174.276,34.739c-1.109-1.26-2.369-2.482-3.749-3.674c-0.021-0.008-0.037-0.022-0.052-0.037
	c-3.472-2.954-7.767-5.661-12.835-8.075c-14.604-6.979-34.027-10.817-54.674-10.817c-20.646,0-40.063,3.838-54.674,10.817
	c-7.129,3.396-12.722,7.362-16.643,11.786c-4.07,4.603-6.147,9.505-6.147,14.558c0,5.069,2.077,9.971,6.147,14.574
	c0.998,1.125,2.114,2.227,3.329,3.292c0.413,0.367,0.84,0.733,1.282,1.087c3.328,2.69,7.347,5.172,12.032,7.406
	c14.611,6.979,34.028,10.817,54.674,10.817c20.646,0,40.07-3.838,54.674-10.817c7.122-3.396,12.723-7.362,16.636-11.785
	c4.086-4.603,6.154-9.505,6.154-14.574C180.431,44.245,178.362,39.342,174.276,34.739 M52.76,68.25l2.497-14.619h-7.819
	L44.934,68.25h-7.511c-0.81-0.631-1.574-1.274-2.316-1.928l6.125-35.624h10.143l-2.369,13.839h7.819l2.376-13.839h10.135
	L62.904,68.25H52.76z M90.725,63.159c-3.951,3.884-8.269,5.091-12.857,5.091H64.973l4.873-28.406l9.102,6.328l-2.302,13.426h1.462
	c1.342,0,2.189,0.113,3.576-0.666c1.027-0.593,1.89-1.41,2.602-2.452c1.537-2.189,2.354-4.707,2.788-7.227
	c0.428-2.519,0.368-5.803-0.682-7.887c-1.207-2.241-2.773-2.128-5.083-2.128h-1.169l-10.188-0.016l1.462-8.523h12.22
	c4.783,0,8.479,0.705,11.388,4.595c2.841,3.726,3.561,8.869,2.631,14.236C96.804,54.463,94.375,59.598,90.725,63.159 M115.696,68.25
	l-6.5-17.573l-1.784-6.792l-0.12,0.113l0.022,0.435c0.076,2.414,0.038,3.726-0.405,6.297l-3.006,17.521H95.65l6.448-37.552h9.603
	l7.512,20.961l0.12-0.105l1.057-10.405l1.8-10.45h8.254l-6.439,37.552H115.696z M154.17,54.95l-0.248,1.477h-16.522
	c-0.667,3.007-0.075,5.195,2.826,5.195c2.182,0,3.546-0.981,4.349-3.396l8.921,0.66c-2.661,6.793-8.509,9.91-14.356,9.91
	c-3.621,0-7.002-0.876-9.326-3.665c-2.196-2.685-2.938-6.522-2.249-10.511c0.645-3.778,2.654-7.886,5.436-10.57
	c3.014-2.954,7.032-4.326,10.541-4.326C151.756,39.724,155.752,45.751,154.17,54.95 M168.797,68.017l-5.466,0.779
	c-2.631,0.383-4.926-0.546-6.425-2.848c-1.484-2.294-0.976-4.978-0.465-7.992l1.822-10.57h-3.577l1.215-7.107h4.011l2.257-8.929
	l7.227-0.285c0.337,0.277,0.667,0.555,0.99,0.839l-1.432,8.374h4.917l-1.215,7.107h-4.835l-1.649,9.642
	c-0.352,2.023-0.816,3.613,1.454,3.613c0.915,0,1.875-0.219,2.842-0.494l-1.305,7.578C169.043,67.822,168.916,67.92,168.797,68.017"
	/>
<path fill="#0C2FA7" d="M142.542,46.134c-2.511,0-3.913,2.242-4.258,4.813h6.912C145.661,48.21,145.249,46.134,142.542,46.134"/>
<path fill="#0C2FA7" d="M191.219,31.965c-5.001-5.458-12.152-10.353-21.253-14.558c-9.087-4.191-19.664-7.482-31.427-9.784
	c-12.189-2.376-25.129-3.591-38.474-3.591c-13.337,0-26.276,1.214-38.458,3.591c-11.778,2.302-22.355,5.592-31.434,9.784
	c-9.102,4.205-16.253,9.101-21.254,14.558C3.709,37.647,1.07,43.69,1.07,49.935c0,6.237,2.639,12.287,7.849,17.969
	c5,5.458,12.152,10.346,21.254,14.559c9.079,4.191,19.656,7.489,31.434,9.784c12.182,2.376,25.122,3.584,38.458,3.584
	c13.345,0,26.284-1.208,38.474-3.584c11.763-2.295,22.34-5.593,31.427-9.784c9.101-4.213,16.252-9.101,21.253-14.559
	c5.21-5.683,7.842-11.732,7.842-17.969C199.061,43.69,196.429,37.647,191.219,31.965 M1.79,49.935
	c0-24.912,44.088-45.176,98.275-45.176c54.187,0,98.283,20.264,98.283,45.176c0,24.912-44.097,45.175-98.283,45.175
	C45.878,95.11,1.79,74.847,1.79,49.935"/>
<path fill="#F7F8F8" d="M47.438,53.631h7.834L52.76,68.25h10.144l6.447-37.552h-10.15l-2.376,13.839h-7.827l2.376-13.839H41.231
	l-6.11,35.624c0.728,0.653,1.492,1.297,2.302,1.928h7.511L47.438,53.631z"/>
<path fill="#F7F8F8" d="M95.65,68.25h8.253l3.006-17.521c0.443-2.571,0.481-3.883,0.405-6.297l-0.022-0.435l0.12-0.113l1.784,6.792
	l6.5,17.573h8.307l6.439-37.552h-8.254l-1.8,10.45l-1.057,10.405l-0.12,0.105L111.7,30.698h-9.61L95.65,68.25z"/>
<path fill="#F7F8F8" d="M129.813,65.131c2.324,2.789,5.705,3.665,9.326,3.665c5.848,0,11.695-3.117,14.356-9.91l-8.921-0.66
	c-0.803,2.415-2.174,3.396-4.349,3.396c-2.901,0-3.493-2.188-2.826-5.195h16.522l0.248-1.477c1.582-9.199-2.414-15.226-10.63-15.226
	c-3.509,0-7.527,1.372-10.541,4.326c-2.781,2.684-4.791,6.792-5.436,10.563C126.874,58.608,127.616,62.446,129.813,65.131
	 M142.542,46.134c2.707,0,3.119,2.077,2.654,4.813h-6.912C138.629,48.375,140.031,46.134,142.542,46.134"/>
<path fill="#F7F8F8" d="M159.912,40.279h-4.011l-1.215,7.114h3.577l-1.822,10.563c-0.518,3.015-1.02,5.698,0.465,7.992
	c1.492,2.302,3.794,3.23,6.425,2.848l5.466-0.779c0.119-0.097,0.246-0.194,0.366-0.292l1.305-7.578
	c-0.967,0.275-1.927,0.494-2.842,0.494c-2.271,0-1.806-1.59-1.454-3.613l1.649-9.634h4.835l1.215-7.114h-4.925l1.439-8.374
	c-0.323-0.285-0.653-0.562-0.99-0.839l-7.227,0.285L159.912,40.279z"/>
<path fill="#F7F8F8" d="M95.02,35.293c-2.909-3.891-6.604-4.595-11.388-4.595h-12.22l-1.462,8.523l10.196,0.016h1.155
	c2.316,0,3.883-0.112,5.09,2.128c1.05,2.084,1.117,5.368,0.675,7.887c-0.427,2.511-1.244,5.038-2.781,7.227
	c-0.712,1.042-1.575,1.859-2.602,2.452c-1.387,0.779-2.234,0.666-3.583,0.666h-1.455l2.302-13.426l-9.102-6.328L64.973,68.25h12.895
	c4.588,0,8.906-1.207,12.857-5.091c3.651-3.562,6.08-8.696,6.927-13.636C98.573,44.162,97.861,39.02,95.02,35.293"/>
<path fill="#F7F8F8" d="M160.729,77.71c-15.437,7.527-35.947,11.681-57.763,11.681c-8.344,0-16.485-0.615-24.237-1.784l4.401,4.715
	c5.495,0.458,11.155,0.697,16.935,0.697c29.867,0,56.533-6.372,73.82-16.305l-4.011-4.304
	C167.161,74.284,164.11,76.061,160.729,77.71"/>
<path fill="#F7F8F8" d="M21.454,26.17l6.544,7.017c4.116-4.596,9.896-8.726,17.205-12.294c15.436-7.52,35.947-11.666,57.763-11.666
	c2.751,0,5.479,0.067,8.187,0.195l-2.22-2.376c-2.924-0.128-5.877-0.195-8.868-0.195C67.282,6.851,38.352,14.535,21.454,26.17"/>
<path fill="#F7F8F8" d="M100.065,4.759C45.878,4.759,1.79,25.023,1.79,49.935c0,24.912,44.088,45.175,98.275,45.175
	c54.187,0,98.276-20.264,98.276-45.175C198.342,25.023,154.252,4.759,100.065,4.759 M167.146,80.987
	c-17.925,8.223-41.749,12.759-67.081,12.759c-25.332,0-49.156-4.536-67.082-12.759c-8.733-4.004-15.601-8.689-20.398-13.892
	c-5-5.428-7.542-11.201-7.542-17.161c0-5.96,2.541-11.733,7.542-17.153c4.798-5.21,11.665-9.881,20.398-13.892
	c17.925-8.231,41.75-12.76,67.082-12.76c25.332,0,49.156,4.528,67.081,12.76c8.742,4.011,15.601,8.681,20.406,13.892
	c4.993,5.42,7.527,11.193,7.527,17.153c0,5.959-2.534,11.733-7.527,17.161C182.747,72.298,175.889,76.983,167.146,80.987"/>
<path fill="#F7F8F8" d="M102.967,9.947c-44.726,0-81.108,17.655-81.108,39.366c0,21.696,36.382,39.35,81.108,39.35
	c44.718,0,81.107-17.654,81.107-39.35C184.074,27.602,147.685,9.947,102.967,9.947 M174.276,63.871
	c-3.913,4.423-9.514,8.389-16.636,11.785c-14.611,6.979-34.027,10.817-54.674,10.817c-20.653,0-40.063-3.838-54.674-10.817
	c-4.685-2.234-8.704-4.716-12.04-7.406c-0.435-0.354-0.862-0.72-1.282-1.087c-1.207-1.065-2.324-2.167-3.321-3.292
	c-4.078-4.603-6.147-9.505-6.147-14.558c0-5.068,2.069-9.971,6.147-14.574c3.914-4.423,9.514-8.389,16.643-11.786
	c14.611-6.979,34.021-10.817,54.674-10.817c20.646,0,40.063,3.838,54.674,10.817c5.068,2.414,9.363,5.121,12.835,8.075l0.06-0.008
	l-0.008,0.06c1.38,1.177,2.64,2.399,3.749,3.659c4.086,4.603,6.154,9.505,6.154,14.574
	C180.431,54.366,178.362,59.269,174.276,63.871"/>
</svg>
