<?xml version="1.0" encoding="UTF-8"?>
<svg width="46px" height="30px" viewBox="0 0 46 30" version="1.1" xmlns="http://www.w3.org/2000/svg" xmlns:xlink="http://www.w3.org/1999/xlink">
    <!-- Generator: Sketch 58 (84663) - https://sketch.com -->
    <title>Logo francia</title>
    <desc>Created with Sketch.</desc>
    <g id="Symbols" stroke="none" stroke-width="1" fill="none" fill-rule="evenodd">
        <g id="logo-carrefour" transform="translate(-119.000000, 0.000000)">
            <g transform="translate(0.000000, -0.000000)" id="Logo-francia">
                <g transform="translate(119.000000, 0.000000)">
                    <g id="Logo">
                        <path d="M12.8415838,0.43962588 L0.972614054,12.564796 C0.379728757,13.09688 0,13.721468 0,14.61278 C0,15.501116 0.379728757,16.128556 0.972614054,16.66374 L12.8415838,28.784492 C12.9192865,28.866456 12.9912703,28.90068 13.0548,28.90068 C13.1676865,28.90068 13.2438973,28.790444 13.2412335,28.665204 L13.1366054,28.429728 C10.3514919,24.774952 8.32297892,20.582264 8.32297892,14.657544 C8.32297892,8.7267976 10.3514919,4.4520464 13.1366054,0.79436384 C13.2072216,0.72133032 13.2383027,0.6378622 13.2412335,0.560356 C13.2438973,0.430683 13.1676865,0.32634816 13.0548,0.32634816 C12.9912703,0.32634816 12.9192865,0.35913872 12.8415838,0.43962588 Z" id="Path" fill="#FD0202"></path>
                        <path d="M22.6576108,0.26519508 C17.8044865,0.26519508 15.907173,7.0354748 15.907173,15.104316 C15.907173,23.177584 17.8044865,29.856472 22.6576108,29.856472 C25.5721459,29.856472 28.0531622,28.176272 28.0621135,26.7964 C28.0634811,26.494584 27.9441297,26.205788 27.6876486,25.953324 C26.3062811,24.641652 25.7667135,23.328492 25.7637297,22.172068 C25.7534108,19.960776 27.7023189,18.313932 29.4979351,18.313932 C31.9672649,18.313932 33.4223568,20.223408 33.4223568,22.697332 C33.4223568,25.040684 32.4079946,26.993684 31.3053622,28.556456 L31.2434486,28.75374 C31.2434486,28.87712 31.317173,28.977188 31.4276973,28.977188 C31.4925946,28.977188 31.5706703,28.943832 31.6562054,28.858272 L44.0558162,17.058804 C44.6749514,16.536516 45.0700541,15.927056 45.0700541,15.06228 C45.0700541,14.194652 44.6749514,13.585192 44.0558162,13.067244 L31.6562054,1.2634732 C31.5706703,1.18221476 31.4925946,1.1459398 31.4276973,1.1459398 C31.3156811,1.1459398 31.2434486,1.2460636 31.2434486,1.369394 L31.3053622,1.5681784 C32.4079946,3.1294252 33.4223568,5.0839008 33.4223568,7.4257772 C33.4223568,9.8967996 31.9672649,11.8091896 29.4979351,11.8091896 C27.7023189,11.8091896 25.7534108,10.163784 25.7637297,7.952492 C25.7667135,6.7960556 26.3062811,5.4829204 27.6876486,4.1697852 C27.9441297,3.915858 28.0634811,3.6300132 28.0621135,3.3267588 C28.0531622,1.945436 25.5721459,0.26519508 22.6576108,0.26519508 Z" id="Path" fill="#00529C"></path>
                    </g>
                </g>
            </g>
        </g>
    </g>
</svg>